<mxfile host="app.diagrams.net" modified="2024-02-05T06:12:06.401Z" agent="Mozilla/5.0 (Macintosh; Intel Mac OS X 10_15_7) AppleWebKit/537.36 (KHTML, like Gecko) Chrome/120.0.0.0 Safari/537.36" etag="q6tjTClmM3I7TPISiojw" version="23.1.1" type="github">
  <diagram id="C5RBs43oDa-KdzZeNtuy" name="Page-1">
    <mxGraphModel dx="688" dy="2358" grid="1" gridSize="10" guides="1" tooltips="1" connect="1" arrows="1" fold="1" page="1" pageScale="1" pageWidth="827" pageHeight="1169" math="0" shadow="0">
      <root>
        <mxCell id="WIyWlLk6GJQsqaUBKTNV-0" />
        <mxCell id="WIyWlLk6GJQsqaUBKTNV-1" parent="WIyWlLk6GJQsqaUBKTNV-0" />
        <mxCell id="yayGzooHw2XR1gn8CboK-4" value="" style="edgeStyle=orthogonalEdgeStyle;rounded=0;orthogonalLoop=1;jettySize=auto;html=1;" edge="1" parent="WIyWlLk6GJQsqaUBKTNV-1" source="yayGzooHw2XR1gn8CboK-1" target="yayGzooHw2XR1gn8CboK-3">
          <mxGeometry relative="1" as="geometry" />
        </mxCell>
        <mxCell id="yayGzooHw2XR1gn8CboK-1" value="start" style="rounded=1;whiteSpace=wrap;html=1;" vertex="1" parent="WIyWlLk6GJQsqaUBKTNV-1">
          <mxGeometry x="160" y="-10" width="120" height="60" as="geometry" />
        </mxCell>
        <mxCell id="yayGzooHw2XR1gn8CboK-6" value="" style="edgeStyle=orthogonalEdgeStyle;rounded=0;orthogonalLoop=1;jettySize=auto;html=1;" edge="1" parent="WIyWlLk6GJQsqaUBKTNV-1" source="yayGzooHw2XR1gn8CboK-3" target="yayGzooHw2XR1gn8CboK-5">
          <mxGeometry relative="1" as="geometry" />
        </mxCell>
        <mxCell id="yayGzooHw2XR1gn8CboK-3" value="n = 1" style="rounded=0;whiteSpace=wrap;html=1;" vertex="1" parent="WIyWlLk6GJQsqaUBKTNV-1">
          <mxGeometry x="160" y="80" width="120" height="60" as="geometry" />
        </mxCell>
        <mxCell id="yayGzooHw2XR1gn8CboK-8" value="" style="edgeStyle=orthogonalEdgeStyle;rounded=0;orthogonalLoop=1;jettySize=auto;html=1;" edge="1" parent="WIyWlLk6GJQsqaUBKTNV-1" source="yayGzooHw2XR1gn8CboK-5" target="yayGzooHw2XR1gn8CboK-7">
          <mxGeometry relative="1" as="geometry" />
        </mxCell>
        <mxCell id="yayGzooHw2XR1gn8CboK-5" value="sum = 0" style="rounded=0;whiteSpace=wrap;html=1;" vertex="1" parent="WIyWlLk6GJQsqaUBKTNV-1">
          <mxGeometry x="160" y="160" width="120" height="60" as="geometry" />
        </mxCell>
        <mxCell id="yayGzooHw2XR1gn8CboK-10" value="" style="edgeStyle=orthogonalEdgeStyle;rounded=0;orthogonalLoop=1;jettySize=auto;html=1;" edge="1" parent="WIyWlLk6GJQsqaUBKTNV-1" source="yayGzooHw2XR1gn8CboK-7" target="yayGzooHw2XR1gn8CboK-9">
          <mxGeometry relative="1" as="geometry" />
        </mxCell>
        <mxCell id="yayGzooHw2XR1gn8CboK-11" value="yes" style="edgeLabel;html=1;align=center;verticalAlign=middle;resizable=0;points=[];" vertex="1" connectable="0" parent="yayGzooHw2XR1gn8CboK-10">
          <mxGeometry x="-0.125" y="-2" relative="1" as="geometry">
            <mxPoint as="offset" />
          </mxGeometry>
        </mxCell>
        <mxCell id="yayGzooHw2XR1gn8CboK-15" value="" style="edgeStyle=orthogonalEdgeStyle;rounded=0;orthogonalLoop=1;jettySize=auto;html=1;" edge="1" parent="WIyWlLk6GJQsqaUBKTNV-1" source="yayGzooHw2XR1gn8CboK-7" target="yayGzooHw2XR1gn8CboK-14">
          <mxGeometry relative="1" as="geometry" />
        </mxCell>
        <mxCell id="yayGzooHw2XR1gn8CboK-16" value="no" style="edgeLabel;html=1;align=center;verticalAlign=middle;resizable=0;points=[];" vertex="1" connectable="0" parent="yayGzooHw2XR1gn8CboK-15">
          <mxGeometry x="-0.025" y="-4" relative="1" as="geometry">
            <mxPoint as="offset" />
          </mxGeometry>
        </mxCell>
        <mxCell id="yayGzooHw2XR1gn8CboK-7" value="n &amp;lt;= 63" style="rounded=0;whiteSpace=wrap;html=1;" vertex="1" parent="WIyWlLk6GJQsqaUBKTNV-1">
          <mxGeometry x="160" y="240" width="120" height="60" as="geometry" />
        </mxCell>
        <mxCell id="yayGzooHw2XR1gn8CboK-18" value="" style="edgeStyle=orthogonalEdgeStyle;rounded=0;orthogonalLoop=1;jettySize=auto;html=1;" edge="1" parent="WIyWlLk6GJQsqaUBKTNV-1" source="yayGzooHw2XR1gn8CboK-9" target="yayGzooHw2XR1gn8CboK-17">
          <mxGeometry relative="1" as="geometry" />
        </mxCell>
        <mxCell id="yayGzooHw2XR1gn8CboK-20" value="" style="edgeStyle=orthogonalEdgeStyle;rounded=0;orthogonalLoop=1;jettySize=auto;html=1;" edge="1" parent="WIyWlLk6GJQsqaUBKTNV-1" source="yayGzooHw2XR1gn8CboK-9" target="yayGzooHw2XR1gn8CboK-19">
          <mxGeometry relative="1" as="geometry" />
        </mxCell>
        <mxCell id="yayGzooHw2XR1gn8CboK-26" value="yes" style="edgeLabel;html=1;align=center;verticalAlign=middle;resizable=0;points=[];" vertex="1" connectable="0" parent="yayGzooHw2XR1gn8CboK-20">
          <mxGeometry x="0.1" y="2" relative="1" as="geometry">
            <mxPoint as="offset" />
          </mxGeometry>
        </mxCell>
        <mxCell id="yayGzooHw2XR1gn8CboK-9" value="63 // n" style="whiteSpace=wrap;html=1;rounded=0;" vertex="1" parent="WIyWlLk6GJQsqaUBKTNV-1">
          <mxGeometry x="160" y="350" width="120" height="60" as="geometry" />
        </mxCell>
        <mxCell id="yayGzooHw2XR1gn8CboK-14" value="end" style="rounded=0;whiteSpace=wrap;html=1;" vertex="1" parent="WIyWlLk6GJQsqaUBKTNV-1">
          <mxGeometry x="360" y="240" width="120" height="60" as="geometry" />
        </mxCell>
        <mxCell id="yayGzooHw2XR1gn8CboK-24" value="" style="edgeStyle=orthogonalEdgeStyle;rounded=0;orthogonalLoop=1;jettySize=auto;html=1;" edge="1" parent="WIyWlLk6GJQsqaUBKTNV-1" source="yayGzooHw2XR1gn8CboK-17" target="yayGzooHw2XR1gn8CboK-23">
          <mxGeometry relative="1" as="geometry" />
        </mxCell>
        <mxCell id="yayGzooHw2XR1gn8CboK-17" value="sum" style="whiteSpace=wrap;html=1;rounded=0;" vertex="1" parent="WIyWlLk6GJQsqaUBKTNV-1">
          <mxGeometry x="440" y="470" width="120" height="60" as="geometry" />
        </mxCell>
        <mxCell id="yayGzooHw2XR1gn8CboK-22" value="" style="edgeStyle=orthogonalEdgeStyle;rounded=0;orthogonalLoop=1;jettySize=auto;html=1;entryX=0;entryY=0.75;entryDx=0;entryDy=0;" edge="1" parent="WIyWlLk6GJQsqaUBKTNV-1" source="yayGzooHw2XR1gn8CboK-19" target="yayGzooHw2XR1gn8CboK-17">
          <mxGeometry relative="1" as="geometry">
            <mxPoint x="360" y="520" as="targetPoint" />
            <Array as="points">
              <mxPoint x="440" y="520" />
            </Array>
          </mxGeometry>
        </mxCell>
        <mxCell id="yayGzooHw2XR1gn8CboK-19" value="print n" style="whiteSpace=wrap;html=1;rounded=0;" vertex="1" parent="WIyWlLk6GJQsqaUBKTNV-1">
          <mxGeometry x="160" y="490" width="120" height="60" as="geometry" />
        </mxCell>
        <mxCell id="yayGzooHw2XR1gn8CboK-25" style="edgeStyle=orthogonalEdgeStyle;rounded=0;orthogonalLoop=1;jettySize=auto;html=1;entryX=0;entryY=0.5;entryDx=0;entryDy=0;exitX=0;exitY=0.5;exitDx=0;exitDy=0;" edge="1" parent="WIyWlLk6GJQsqaUBKTNV-1" source="yayGzooHw2XR1gn8CboK-23" target="yayGzooHw2XR1gn8CboK-7">
          <mxGeometry relative="1" as="geometry">
            <mxPoint x="370" y="640" as="sourcePoint" />
            <mxPoint x="90" y="270" as="targetPoint" />
            <Array as="points">
              <mxPoint x="40" y="640" />
              <mxPoint x="40" y="270" />
            </Array>
          </mxGeometry>
        </mxCell>
        <mxCell id="yayGzooHw2XR1gn8CboK-23" value="n = n +1" style="whiteSpace=wrap;html=1;rounded=0;" vertex="1" parent="WIyWlLk6GJQsqaUBKTNV-1">
          <mxGeometry x="440" y="610" width="120" height="60" as="geometry" />
        </mxCell>
      </root>
    </mxGraphModel>
  </diagram>
</mxfile>
